# xmcd CD database file
#
# Track frame offsets:
#	150
#	31881
#	46560
#	67567
#	83297
#	103405
#	116891
#	131766
#	155652
#	171414
#
# Disc length: 2618 seconds
#
# Revision: 0
# Processed by: cddbd v1.5.1PL0 Copyright (c) Steve Scherf et al.
# Submitted via: CDex 1.51
#
DISCID=790a380a
DTITLE=The Purple Gang - Live
DYEAR=1999
DGENRE=Blues
TTITLE0=Thrill Is Gone
TTITLE1=Homework
TTITLE2=Green Malishi
TTITLE3=Too Tired
TTITLE4=Jumping At Shadows
TTITLE5=You Don't Love Me
TTITLE6=Candyman
TTITLE7=Hoochie Coochie Man
TTITLE8=Long Grey Mare
TTITLE9=Black Cat Moan
EXTD=YEAR: 1999
EXTT0=
EXTT1=
EXTT2=
EXTT3=
EXTT4=
EXTT5=
EXTT6=
EXTT7=
EXTT8=
EXTT9=
PLAYORDER=
